<?xml version="1.0" encoding="UTF-8"?>
<svg id="Capa_1" xmlns="http://www.w3.org/2000/svg" version="1.1" viewBox="0 0 78 78">
  <!-- Generator: Adobe Illustrator 30.2.1, SVG Export Plug-In . SVG Version: 2.1.1 Build 1)  -->
  <defs>
    <style>
      .st0 {
        fill: #070707;
      }
    </style>
  </defs>
  <path class="st0" d="M0,62.5V8c.5-1.5,1.6-2.6,3.4-2.6h71.2c1.8,0,3.4,1.3,3.4,3.2v53c0,2-1.4,3.4-3.4,3.4h-4.4c-.7,0-1.2-.6-1.2-1.2s.5-1.1,1.1-1.1h4.5c.5,0,1.1-.4,1.1-1V8.8c0-.7-.4-1.1-1.1-1.1H3.4c-.7,0-1.1.4-1.1,1.1v52.9c0,.6.5,1,1.1,1h46.7c.8,0,1.2.7,1.1,1.2s-.5,1.1-1.2,1.1H3.5c-1.8,0-2.9-.9-3.5-2.5Z"/>
  <path class="st0" d="M63.8,72.4l-3.7-1.9-3.7,2c-.6.3-1.3.2-1.9,0s-1-.9-1-1.6v-7.3c-.9-.6-1.4-1.6-1.6-2.7,0-.4-1-.7-1.4-.7H14.6c-1.6,0-2.8-.9-3.2-2.4s-2.1-3.6-4.1-4.1-2.4-1.6-2.4-3.1v-30.4c0-1.6.9-2.8,2.4-3.2s3.5-2,4.1-4.1,1.7-2.4,3.2-2.4h48.7c1.6,0,2.8.9,3.2,2.4s2,3.5,4.1,4.1,2.4,1.7,2.4,3.2v30.4c0,.4-.1.9,0,1.2.2,1.2-.2,2.4-1.2,3.1s.8,2-.6,4.1-1.3,1.3-2.4,1.5-.3,1.9-2.2,3.1v7.1c0,.7-.4,1.4-.9,1.7s-1.3.5-2,.1ZM52,43.4c.1-1.1.7-1.9,1.4-2.4,2.2-1.4,3.2.6,4.1-.6s1.5-1.2,2.5-1.2,1.8.4,2.5,1.2c.9,1.2,1.9-.8,4.1.6s1.3,1.2,1.4,2.2,1.3.6,2.7,1.7v-25.1c0-.4-.4-.8-.8-.9-2.8-.7-4.9-2.8-5.7-5.7s-.5-.8-1.1-.8H14.7c-.5,0-.9.3-1.1.8-.7,2.8-2.8,4.9-5.7,5.7s-.8.5-.8,1.1v30.3c0,.6.3,1,.8,1.1,2.8.8,4.9,2.9,5.6,5.7s.5.7.9.7h33.9c-.2-1.5.8-2.4,0-3s-1.3-1.6-1.3-2.6.4-1.8,1.3-2.5-.8-2,.6-4.1,3-1,3.1-2.2ZM64.8,61.6c.5.2,1.1-.2,1.1-.7.2-1.5,1.3-2.7,2.8-2.9s1-.6.7-1.2c-.6-1.4-.2-3,1-3.9s.4-.5.4-.7c0-.8-2.5-1.8-1.4-4.6s-.1-1.1-.7-1.2c-3-.4-2.6-3.1-3.3-3.5s-.6,0-.8,0c-1.4.6-3,.2-3.8-1s-.5-.4-.7-.4-.6.2-.7.4c-.9,1.2-2.4,1.6-3.8,1s-.7,0-.9,0c-.6.5-.3,3.1-3.2,3.5s-.9.7-.7,1.2c1.1,2.8-1.4,3.7-1.4,4.6s2.6,1.7,1.4,4.7.2,1.1.8,1.2c1.5.2,2.6,1.3,2.8,2.9s.6.9,1.1.7c3-1.2,3.8,1.4,4.7,1.4s1.7-2.5,4.7-1.4ZM64.4,70.2v-6.2c-2-1.5-1.6,1.2-4.3,1.2s-2.3-2.7-4.3-1.2v6.1s3.4-1.8,3.4-1.8c.7-.3,1.4-.3,2.1,0l3.2,1.7Z"/>
  <path class="st0" d="M62.6,29.6H15.4c-.7,0-1.2-.5-1.2-1s.3-1.3,1.1-1.3h47.4c.7,0,1.1.5,1.1,1.1s-.3,1.1-1.2,1.2Z"/>
  <path class="st0" d="M62.8,37.6H15.3c-.7,0-1.1-.6-1.1-1.1s.4-1.2,1.2-1.2h47.2c.7,0,1.2.5,1.2,1s-.3,1.1-1.1,1.3Z"/>
  <path class="st0" d="M44,45.6H15.4c-.7,0-1.2-.5-1.2-1s.4-1.3,1.1-1.3h28.7c.7,0,1.2.5,1.2,1.1s-.4,1.2-1.1,1.2Z"/>
  <path class="st0" d="M48,20.3h-18c-.7,0-1.2-.5-1.2-1.1s.4-1.2,1.2-1.2h18c.7,0,1.1.5,1.2,1.1s-.3,1.2-1.1,1.2Z"/>
  <path class="st0" d="M67.4,55.5c-1.9,4.1-6.6,5.9-10.6,4s-4.7-4.2-4.7-7.3,1.8-5.9,4.7-7.2,6.5-.7,8.8,1.6,3.1,5.8,1.7,8.9ZM59.7,46.6c-3.3.2-5.6,3.1-5.3,6.2s3,5.4,6.1,5.1,5.5-2.9,5.2-6.1-2.8-5.5-6-5.2Z"/>
</svg>