<?xml version="1.0" encoding="UTF-8"?>
<svg id="Capa_1" xmlns="http://www.w3.org/2000/svg" version="1.1" viewBox="0 0 78 78">
  <!-- Generator: Adobe Illustrator 30.2.1, SVG Export Plug-In . SVG Version: 2.1.1 Build 1)  -->
  <defs>
    <style>
      .st0 {
        fill: #070707;
      }
    </style>
  </defs>
  <path class="st0" d="M52.1,78h-26.2c-2.3-.6-3.7-2.3-3.7-4.7v-35.4c0-2.1,1.4-3.8,3.3-4.4v-3.5c-1.9-.5-3.3-2.1-3.3-4v-7c0-2,1.3-3.6,3.3-4.2v-4c0-2.4,1.9-4.2,4.2-4.2h3.7s0-3,0-3c0-1.9,1.6-3.5,3.5-3.5h3.8c2,0,3.7,1.5,3.7,3.5v3s3.6,0,3.6,0c2.4,0,4.4,1.7,4.4,4.2v4c2,.6,3.3,2.2,3.3,4.2v6.9c0,2-1.3,3.6-3.3,4.1v3.5c1.8.6,3.3,2.2,3.3,4.2v26.8c0,.7-.8,1-1.3,1s-1-.5-1-1.1v-26.4c0-1.2-.9-2.2-2.1-2.2h-24.8c-1.2,0-2.1,1-2.1,2.2v35.6c0,1.3.9,2.3,2.2,2.3h24.6c1.3,0,2.2-1.1,2.2-2.3v-3.8c0-.7.5-1.1,1.1-1.1s1.2.4,1.2,1.1v3.7c0,2.4-1.5,4.2-3.7,4.7ZM42.2,6.5v-2.8c0-.7-.5-1.4-1.3-1.4h-4c-.7,0-1.3.7-1.3,1.4v2.8s6.5,0,6.5,0ZM30.4,14.5v-5.7c-1.1-.3-2.6.2-2.6,1.5v4.2s2.6,0,2.6,0ZM35.4,14.5v-5.8s-2.7,0-2.7,0v5.8s2.7,0,2.7,0ZM40.3,14.5v-5.7s-2.7,0-2.7,0v5.8s2.7,0,2.7,0ZM45.3,14.5v-5.8s-2.7,0-2.7,0v5.8s2.7,0,2.7,0ZM50.2,14.6v-4.2c0-.6-.5-1.1-.9-1.4s-1.3-.3-1.7-.1v5.7s2.7,0,2.7,0ZM32.1,30c-.8,0-1.2-.6-1.2-1.1s.4-1.1,1.1-1.1h19.5c1.2,0,2.1-1,2.1-2.1v-6.7c0-1.1-.9-2-2.1-2h-24.9c-1.2,0-2,.9-2,2v6.7c0,1.3,1,2.1,2.2,2.1s1.1.6,1.1,1.2v4.3s22.5,0,22.5,0v-3.3s-18.1,0-18.1,0Z"/>
  <path class="st0" d="M46.3,56.3c.6,4.5-3,8.2-7.2,8.2s-8-3.7-7.4-8.2,4.3-7.7,6.4-10.1,1.3-.7,1.8-.1c2.1,2.3,6.1,7,6.5,10.2ZM44.1,56.7c-.8-2.9-3.2-5.8-5.1-8-1.9,2.2-4.4,5.4-5.1,8.1-.2,3,2.2,5.5,5.2,5.5,2.9,0,5.3-2.5,5-5.6Z"/>
</svg>