<?xml version="1.0" encoding="UTF-8"?>
<svg id="Capa_1" xmlns="http://www.w3.org/2000/svg" version="1.1" viewBox="0 0 78 78">
  <!-- Generator: Adobe Illustrator 30.2.1, SVG Export Plug-In . SVG Version: 2.1.1 Build 1)  -->
  <defs>
    <style>
      .st0 {
        fill: #070707;
      }
    </style>
  </defs>
  <path class="st0" d="M60,78H12.7c-1.6-.6-3-1.8-3-3.7v-10.9c0-.7.7-1.2,1.2-1.1s1,.6,1,1.3v10.6c0,.9.7,1.5,1.7,1.5h45.6c.9,0,1.6-.7,1.6-1.6V9.2c0-.9-.6-1.6-1.6-1.6H13.6c-1,0-1.7.6-1.7,1.6v48.8c0,.8-.6,1.2-1.2,1.2s-1.1-.4-1.1-1.2V9c0-2.4,2.3-4,4.5-3.7s.6,0,.7,0,0-.5,0-.6C14.7,2.3,16.2,0,18.6,0h45.7c2.2,0,4.1,1.5,4.1,3.8v9.2c0,.7-.7,1.1-1.2,1.1s-1-.5-1-1.2V3.8c0-.9-.7-1.5-1.7-1.5H18.8c-.8,0-1.5.6-1.5,1.4s0,1.1,0,1.6h42c2.2,0,3.8,1.7,3.8,3.9v61.2c1.1.3,3,0,3-1.4V18.5c0-.8.5-1.2,1.2-1.2s1.1.4,1.1,1.1v50.3c0,2.6-2,4.3-4.6,4s-.6,0-.7.1c-.3.7.8,3.8-3.1,5.2Z"/>
  <path class="st0" d="M24.7,11.2c6.2-.9,11.7,3.4,12.5,9.4s-3.4,11.5-9.3,12.4-11.6-3.3-12.5-9.3,3.2-11.6,9.3-12.5ZM25.1,22v-8.5c-4.5.5-7.7,4.5-7.6,8.9s3.7,8.2,8.2,8.4,8.5-2.9,9.2-7.6h-8.6c-.7,0-1.2-.4-1.2-1.2ZM34.9,20.9c-.6-4.1-3.7-6.9-7.5-7.5v7.5s7.5,0,7.5,0Z"/>
  <path class="st0" d="M57.5,47.5c0,1.1-.8,1.9-1.9,1.9h-17.7c-1.1,0-1.9-.8-1.9-1.9v-10.3c0-1,.8-1.8,1.9-1.8h17.7c1.1,0,1.9.8,1.9,1.9v10.1ZM55.2,47.1v-9.3s-16.9,0-16.9,0v9.3s16.9,0,16.9,0Z"/>
  <path class="st0" d="M20.2,70.4h-3c-1,0-2-.7-2-1.8v-15.4c0-1.2.8-2,2-2h2.9c1,0,1.9.7,1.9,1.8v15.5c0,1-.8,1.9-1.8,1.9ZM19.8,68.1v-14.6s-2.2,0-2.2,0v14.6s2.2,0,2.2,0Z"/>
  <path class="st0" d="M28.7,70.4h-3.2c-1,0-1.9-.8-1.9-1.9v-11.5c0-1,.9-1.8,1.9-1.8h3.1c1,0,1.8.8,1.8,1.9v11.4c0,.9-.7,1.8-1.7,1.8ZM28.2,68.1v-10.5s-2.2,0-2.2,0v10.5s2.2,0,2.2,0Z"/>
  <path class="st0" d="M37.1,70.4h-3.2c-1,0-1.8-.8-1.8-1.8v-6.4c0-1,.9-1.8,1.8-1.8h3.1c1,0,1.9.8,1.9,1.9v6.4c0,.9-.8,1.8-1.8,1.8ZM36.6,68v-5.4s-2.2,0-2.2,0v5.5c.8,0,1.5,0,2.2,0Z"/>
  <path class="st0" d="M55.3,23.6h-14.8c-.6,0-1.1-.5-1.1-1s.4-1.1,1.1-1.1h14.8c.6,0,1,.5,1,1s-.4,1.1-1,1.1Z"/>
  <path class="st0" d="M55.2,18.6h-14.7c-.6,0-1.1-.5-1.1-1s.4-1.1,1.1-1.1h14.7c.6,0,1,.5,1,1s-.3,1.2-1.1,1.2Z"/>
  <path class="st0" d="M32.2,41h-14.7c-.7,0-1.1-.5-1.1-1s.4-1.1,1.1-1.1h14.6c.7,0,1.1.4,1.1,1s-.3,1.1-1.1,1.1Z"/>
  <path class="st0" d="M55.1,26.5c.8,0,1.2.4,1.2,1.1s-.4,1.1-1,1.1h-14.8c-.6,0-1-.6-1-1.1s.4-1,1.1-1h14.5Z"/>
  <path class="st0" d="M32.2,46h-14.7c-.6,0-1.1-.4-1.1-.9s.4-1.2,1.1-1.2h14.6c.7,0,1.1.4,1.1,1s-.3,1.1-1.1,1.1Z"/>
  <path class="st0" d="M55.3,61.5h-13.7c-.6,0-1.1-.5-1.1-1s.4-1.1,1.1-1.1h13.7c.6,0,1,.5,1,1s-.4,1.1-1,1.1Z"/>
  <path class="st0" d="M55.3,56.3h-13.7c-.6,0-1.1-.5-1.1-.9s.4-1.2,1.1-1.2h13.5c.6,0,1.1.4,1.2.9s-.3,1.2-1,1.2Z"/>
  <path class="st0" d="M55.4,66.8h-13.8c-.7,0-1.1-.5-1.1-1s.4-1.1,1.1-1.1h13.7c.6,0,1,.5,1,1s-.3,1-.9,1.2Z"/>
</svg>