<?xml version="1.0" encoding="UTF-8"?>
<svg id="Capa_1" xmlns="http://www.w3.org/2000/svg" version="1.1" viewBox="0 0 78 78">
  <!-- Generator: Adobe Illustrator 30.2.1, SVG Export Plug-In . SVG Version: 2.1.1 Build 1)  -->
  <defs>
    <style>
      .st0 {
        fill: #070707;
      }
    </style>
  </defs>
  <path class="st0" d="M39.4,78h-.9l-14.6-5.2c-.7-.3-1-1.1-.8-1.6s.9-1.1,1.7-.8l12.9,4.5v-5s-27.2-9.5-27.2-9.5v5s9.3,3.3,9.3,3.3c.7.3,1.1,1,.9,1.5s-.9,1.2-1.7.9l-10.4-3.6c-.5-.2-.8-.7-.8-1.3v-20.6s-6.8-2.7-6.8-2.7c-.8-.3-1.1-1-.8-1.8l8.1-12.2,8.1-2.8-1.9-3.1c-.4-.7-.3-1.4.3-1.8s1.5-.3,1.9.4l2.2,3.7,1.9-.7c-1.7-3.1-2.6-6.5-2.6-10.1s.6-1.3,1.3-1.3,1.3.5,1.3,1.3c0,3.3.9,6.4,2.5,9.3l7.5-2.6.9-5.3-5.2-5.1c-.4-.4-.6-.9-.4-1.5s.6-.8,1.2-.9l3.3-.5c.8-.1,1.4.3,1.5,1s-.2,1.3-1,1.5l-1,.2,3.8,3.7c.3.3.6.8.5,1.3l-.9,5.4,4.9-2.6c.3-.2.9,0,1.2,0l4.8,2.5-.9-5.4c0-.4.1-1,.4-1.2l3.9-3.8-5.5-.8c-.3,0-.8-.5-.9-.7l-2.4-4.9-2.4,4.9c-.3.7-1.1.9-1.6.7s-1.1-1-.7-1.7l3.6-7.3c.2-.5.8-.8,1.3-.8s.9.3,1.1.7l3.2,6.6,7.3,1.1c.5,0,1,.4,1.1.8s0,1.1-.3,1.4l-5.4,5.2.9,5.3,2.1.7,1.7-2.9c.4-.6,1.2-.6,1.7-.3s.8,1.1.5,1.7l-1.4,2.4,6.9,2.4c1.3-1.7,2.1-3.6,2.5-5.6s.8-1.2,1.5-1.1,1.2.6,1.1,1.4c-.3,2.3-1.1,4.3-2.4,6.2l1.4.5,7.9-9c.5-.5,1.4-.4,1.8,0s.6,1.2.1,1.7l-7.1,8.2,4.4,1.6c.8,1.1,1.6,2.3,2.3,3.4s.4,1.4-.2,1.9-1.4.3-1.8-.3l-1.6-2.4-27.3,9.5,6.4,10.7,27.3-10.7-1.8-2.8c-.4-.6-.2-1.4.4-1.8s1.4-.2,1.8.4l2.7,4.1c.5.7.1,1.6-.7,1.9l-29.7,11.6c-.7.2-1.3,0-1.6-.6l-5.3-8.7v15.3c0,0,27.1-9.4,27.1-9.4,0-.4,0-.7,0-1.1,0-.8.5-1.5,1.3-1.5s1.3.5,1.3,1.3v16.3c0,.6-.3,1.1-.9,1.3l-29.7,10.4ZM64.7,30.1c-.4-.3-1.1-.5-1.4-.5-.6.3-1,.6-1.6.3s-.6-.7-.7-1.2l-1.6-.5c-2,2-4.4,3.3-7.1,3.9l-2.5.6c-.8.2-1.5-.2-1.6-1s.2-1.3,1-1.5l2.6-.6c1.8-.4,3.3-1.1,4.8-2.3l-6.2-2.2-2.5,4.4c-.4.7-1.2.7-1.8.4s-.8-1.1-.4-1.7l2.2-3.9-.4-.2c0,0-.8,1.1-1.8.6l-6.6-3.5-6.5,3.4c-.7.4-1.4.1-1.9-.5l-5.7,2c1.3,1.7,2.8,2.9,4.4,4.2s.9,1.3.5,2-1.4.7-2,.2l-1.5-1.3c-1.5-1.3-2.8-2.6-4-4.2l-1.9.7c.7.9.6,1.8,0,2.2s-1.5.2-1.9-.6-.4-.6-.6-.7l-4.5,1.6,24.5,8.5,1.3-1.8c2.2-3,2.1-6.9.1-9.9s-.2-1.4.4-1.8,1.3-.3,1.7.3c2.6,3.9,2.6,8.8,0,12.9l23.5-8.2ZM37.6,45.3l-5.3,8.7c-.4.6-1,.8-1.6.6l-10.6-4.2c-.7-.3-.9-1.1-.7-1.7s.9-.9,1.6-.8l9.7,3.8,6.4-10.7-27.4-9.5-6.3,9.5,12.8,5c.7.3,1,1,.8,1.6s-.9,1.1-1.6.8l-4.9-1.9v4.5s27.2,9.4,27.2,9.4v-15.4ZM37.6,67.1v-3.7s-27.1-9.4-27.1-9.4v3.7s27.1,9.4,27.1,9.4ZM67.5,57.6v-3.7s-27.2,9.4-27.2,9.4v3.7s27.2-9.5,27.2-9.5ZM67.5,65.4v-5s-27.2,9.4-27.2,9.4v5s27.2-9.5,27.2-9.5Z"/>
  <path class="st0" d="M62.3,15.5l-3.3,1.7c-.4.2-1,.2-1.4,0s-.7-.8-.6-1.3l.7-3.8-2.7-2.7c-.3-.3-.5-.8-.4-1.3s.5-.8,1-.9l3.9-.6,1.7-3.4c.2-.4.8-.7,1.2-.6s1,.4,1.2.9l1.6,3.3,3.7.5c.5,0,1,.5,1.1.8.2.6,0,1.1-.4,1.5l-2.6,2.6.6,3.7c0,.5-.1,1-.5,1.3s-.9.3-1.4.1l-3.4-1.8ZM63.1,13l1.5.8-.3-1.6c0-.5,0-1.1.4-1.5l1.2-1.2-1.7-.3c-.5,0-.9-.5-1.2-.9l-.7-1.4-.9,1.7c-.1.2-.6.6-.8.6l-2,.3,1.2,1.2c.3.3.5.8.5,1.2l-.3,1.9,1.8-.9c.3-.1.9,0,1.2.2Z"/>
  <path class="st0" d="M7.9,22l-3.6,1.8c-.3.2-1,0-1.3-.2s-.6-.8-.5-1.2l.6-3.8-2.7-2.6c-.4-.3-.5-.9-.4-1.4s.6-.8,1-.8l3.8-.6,1.6-3.3c.2-.4.7-.8,1.2-.8s1.1.3,1.3.8l1.6,3.3,3.7.5c.5,0,1,.5,1.1.9s0,1.1-.5,1.4l-2.6,2.6.6,3.9c0,.4-.2,1-.5,1.2s-1,.4-1.3.2l-3.4-1.8ZM8.4,19.4l1.7.8-.3-1.8c0-.3.1-.9.4-1.1l1.3-1.3-1.8-.3c-.4,0-.8-.4-1-.7l-.8-1.6-.7,1.4c-.3.6-.7.9-1.4,1l-1.5.2,1.2,1.2c.3.3.5.8.5,1.3l-.3,1.8,1.5-.8c.4-.2,1-.3,1.3,0Z"/>
  <path class="st0" d="M19.4,11.2l-2.6,1.3c-.5.2-1,.2-1.5-.1s-.5-.8-.4-1.3l.5-2.8-2.1-2c-.3-.3-.4-.9-.3-1.3s.6-.9,1.1-.9l2.8-.4,1.3-2.5c.2-.4.7-.7,1.1-.8s1,.2,1.2.7l1.3,2.6,2.9.4c.5,0,1,.5,1.1.8.2.5,0,1.1-.4,1.4l-2,2,.5,2.9c0,.4-.1,1-.4,1.2s-1,.4-1.4.2l-2.6-1.4ZM20.8,9c-.4-1.1-.1-2,.9-2.7-1.8-.5-1.4,0-2.4-1.8-.4,1.2-1,1.7-2.4,1.7,1,.8,1.3,1.6.9,2.7l1.3-.5c.5-.2,1.2.3,1.7.5Z"/>
  <path class="st0" d="M29.4,3c.7-.3,1.5,0,1.7.7s0,1.4-.7,1.7-1.3,0-1.6-.6-.2-1.5.6-1.8Z"/>
  <path class="st0" d="M47.5,3c.7-.3,1.5,0,1.7.7s0,1.4-.7,1.7-1.2,0-1.6-.6-.2-1.5.6-1.8Z"/>
  <path class="st0" d="M3.4,3c.7-.4,1.5-.1,1.8.6s.1,1.3-.6,1.7-1.3.1-1.6-.4-.3-1.5.4-1.9Z"/>
  <path class="st0" d="M74.8,13.3c.7-.3,1.5,0,1.7.7s0,1.4-.7,1.6-1.3,0-1.6-.5-.2-1.5.6-1.8Z"/>
  <path class="st0" d="M25.4,15.9c.7-.3,1.5,0,1.8.6s.1,1.4-.7,1.7-1.2,0-1.6-.6-.2-1.4.5-1.7Z"/>
  <path class="st0" d="M53.9,13.4c.7-.4,1.5,0,1.8.6s0,1.3-.6,1.7-1.3.1-1.6-.4-.3-1.5.4-1.9Z"/>
  <path class="st0" d="M37.7,34c0,.8-.7,1.3-1.4,1.2s-1.2-.6-1.2-1.3c0-2.1-.7-4-2.2-5.5s-.5-1.3,0-1.8,1.3-.6,1.8,0c2,1.9,3.1,4.6,3,7.4Z"/>
</svg>