<?xml version="1.0" encoding="UTF-8"?>
<svg id="Capa_1" xmlns="http://www.w3.org/2000/svg" version="1.1" viewBox="0 0 78 78">
  <!-- Generator: Adobe Illustrator 30.2.1, SVG Export Plug-In . SVG Version: 2.1.1 Build 1)  -->
  <defs>
    <style>
      .st0 {
        fill: #070707;
      }
    </style>
  </defs>
  <path class="st0" d="M56,78h-.9l-.8-.5-10.7-18.6c-.9-.2-1.7-.3-2.4-.6-3-1.2-4.1.2-6.8.6l-10.7,18.6-.8.5h-.9c-.2-.2-.8-.6-.9-.9l-2.4-8.7-8.4,2.2c-.6.2-1.3,0-1.7-.4s-.6-1.1-.3-1.7l9.9-17.1c-4.4-3.9-1.8-6.6-5.3-9.4-3.1-2.5-4.2-6.6-2.7-10.3s.6-3,0-4.4c-1.5-3.7-.3-7.8,2.8-10.3s1.9-2.2,2.1-3.7c.6-4,3.6-7.1,7.6-7.6s2.9-1,3.8-2.2C29,.2,33.2-.8,36.9.7s2.8.5,4.1,0c3.7-1.5,7.8-.5,10.3,2.6s2.2,2,3.8,2.3c4,.6,7.1,3.6,7.6,7.6s1,2.8,2.2,3.7c3.1,2.5,4.2,6.6,2.8,10.3s-.6,2.9,0,4.3c1.5,3.7.4,7.9-2.8,10.4-3.4,2.8-.9,5.5-5.2,9.3l9.9,17.2c.3.5.1,1.2-.2,1.6s-.9.7-1.5.5l-8.7-2.3-2.3,8.6c-.1.4-.6.8-1,1ZM49.1,53.6c1.5-1.9,3.5-3,5.8-3.3s4.6-2.4,4.9-5,1.5-4.3,3.3-5.8,2.8-4.4,1.8-6.8-.8-4.5,0-6.6.2-5.1-1.8-6.8-3-3.5-3.3-5.8-2.4-4.5-5-4.9-4.3-1.5-5.7-3.3-4.4-2.8-6.9-1.8-4.4.8-6.5,0-5.1-.3-6.8,1.8-3.4,3-5.8,3.4-4.6,2.3-5,4.9-1.5,4.3-3.3,5.8-2.8,4.4-1.8,6.8.8,4.5,0,6.6-.2,5.2,1.8,6.8,3,3.4,3.3,5.7,2.4,4.7,5,5,4.3,1.5,5.7,3.3,4.3,2.8,6.8,1.8,4.5-.9,6.6,0,5.1.3,6.8-1.8ZM23,72.5l8-13.9c-5-1.5-4.1-4.7-8.6-5.3l-1.6-.3-7.9,13.8,6.7-1.8c.8,0,1.4.4,1.7,1.1l1.8,6.4ZM55,72.5l1.8-6.4c.2-.8,1-1.2,1.8-1.1l6.5,1.7-8-13.8-2,.5c-4.1.6-3.4,3.8-8.2,5.2l8,13.9Z"/>
  <path class="st0" d="M45.2,14.4c-.9-.4-1.1-1.3-.8-2s1.1-1.2,1.9-.9c8.9,3.5,14,12.9,12.2,22.2-1.8,9.2-9.9,16-19.4,16-9.4,0-17.6-6.7-19.5-15.9s3.2-18.8,12.2-22.4,1.6.2,1.9.9,0,1.6-.8,1.9c-7.6,3-11.9,10.9-10.3,18.9s8.4,13.5,16.4,13.5,14.9-5.6,16.5-13.4c1.6-8-2.6-15.9-10.3-19Z"/>
  <path class="st0" d="M36.2,39.6l-8.9-8.9c-.6-.6-.6-1.6,0-2.2l4.7-4.7c.6-.5,1.5-.6,2.1,0l3.1,3.1,6.5-6.5c.6-.6,1.6-.8,2.2,0l4.7,4.7c.6.6.6,1.6,0,2.2l-12.3,12.3c-.6.6-1.5.7-2.2,0ZM30.6,29.7l6.7,6.7,10.2-10.2-2.6-2.6-6.5,6.5c-.7.7-1.6.7-2.3,0l-3.1-3-2.5,2.6Z"/>
  <path class="st0" d="M38.4,10.3c.8-.4,1.7,0,2,.8s0,1.6-.9,2-1.5,0-1.9-.7-.2-1.7.7-2.1Z"/>
</svg>