<?xml version="1.0" encoding="UTF-8"?>
<svg id="Capa_1" xmlns="http://www.w3.org/2000/svg" version="1.1" viewBox="0 0 78 78">
  <!-- Generator: Adobe Illustrator 30.2.1, SVG Export Plug-In . SVG Version: 2.1.1 Build 1)  -->
  <defs>
    <style>
      .st0 {
        fill: #070707;
      }
    </style>
  </defs>
  <path class="st0" d="M0,74.6v-7.6c.3-.5.8-.8,1.3-.8s1,.6,1,1.2v6.9s2.6,0,2.6,0v-.9c0-1.4,1-2.5,2.5-2.5h4.5c1.7,0,2.5,1.7,2.2,3.3h2.7s0-70.7,0-70.7c-.9,0-1.7,0-2.7,0,.3,1.6-.5,3.3-2.2,3.3h-4.6c-.7,0-1.5-.5-1.8-1-.5-.7-.4-1.4-.5-2.4h-2.6c0,0,0,58.2,0,58.2,0,.7-.3,1.2-.9,1.3s-1.1-.2-1.4-.7V3.3C.5,2.1,1.4,1.3,2.9,1.3h2.4c1.1,0,1.9.8,1.9,1.9v1.5s4.5,0,4.5,0v-1.7c.1-.9.9-1.6,1.9-1.6h50.8c1,0,1.8.7,1.8,1.6v1.7c0,0,4.6,0,4.6,0v-1.6c0-1.1.9-1.7,1.9-1.7h2.6c1.5,0,2.7,1.1,2.7,2.7v6.7c0,.7-.5,1.2-1.1,1.2s-1.1-.5-1.1-1.2V3.7c-.9,0-1.7,0-2.7,0,.3,1.5-.4,3.1-2,3.3s-3.2,0-4.9,0-2.5-1.7-2.2-3.3c-.9,0-1.8,0-2.7,0v70.7s2.7,0,2.7,0c-.3-1.6.5-3.2,2.1-3.3s3.3,0,4.9,0,2.2,1.3,2.2,2.5v.9c1,0,1.7,0,2.6-.1V16.2c0-.8.5-1.2,1.1-1.2s1.1.4,1.1,1.2v57.8c0,1.5-1.2,2.7-2.6,2.7h-2.8c-1.1,0-1.8-.9-1.8-1.9v-1.5s-4.5,0-4.5,0v1.6c0,.9-.7,1.8-1.8,1.8H13.5c-1.1,0-1.8-.9-1.8-1.9v-1.5s-4.5,0-4.5,0v1.6c0,1-.8,1.7-1.8,1.7h-2.5c-1.4,0-2.4-.8-2.9-2.1ZM59,10.4V3.6s-40,0-40,0v6.9s40,0,40,0ZM59,65.3V12.7s-40,0-40,0v52.5s40,0,40,0ZM59,74.4v-6.9s-40,0-40,0v6.9s40,0,40,0Z"/>
  <path class="st0" d="M70.6,43.6h-4.2c-1.3,0-2.4-.9-2.4-2.3v-4.4c0-1.4,1.1-2.4,2.5-2.4h4.1c1.4,0,2.5,1,2.5,2.4v4.3c0,1.4-1,2.4-2.5,2.4ZM70.8,41.3v-4.6s-4.6,0-4.6,0v4.6s4.6,0,4.6,0Z"/>
  <path class="st0" d="M70.8,25.2h-4.4c-1.4,0-2.5-1-2.5-2.4v-4.3c0-1.4,1-2.5,2.5-2.5h4.3c1.3,0,2.4,1,2.4,2.3v4.4c0,1.2-1,2.4-2.3,2.4ZM70.8,23v-4.6s-4.6,0-4.6,0v4.6s4.6,0,4.6,0Z"/>
  <path class="st0" d="M70.8,61.9h-4.4c-1.4,0-2.5-1-2.5-2.5v-4.3c0-1.4,1.1-2.4,2.5-2.4h4.1c1.4,0,2.5,1,2.5,2.4v4.4c0,1.2-1,2.3-2.3,2.3ZM70.8,59.6v-4.6s-4.6,0-4.6,0v4.6s4.6,0,4.6,0Z"/>
  <path class="st0" d="M11.7,43.6h-4.2c-1.4,0-2.5-1-2.5-2.4v-4.3c0-1.5,1.1-2.5,2.5-2.5h4.1c1.4,0,2.5,1,2.5,2.4v4.3c0,1.3-1,2.4-2.4,2.4ZM11.8,41.3v-4.6s-4.6,0-4.6,0v4.6s4.6,0,4.6,0Z"/>
  <path class="st0" d="M11.7,25.2h-4.2c-1.5,0-2.6-1.1-2.6-2.6v-4.1c0-1.4,1-2.5,2.4-2.5h4.3c1.4,0,2.5,1,2.5,2.5v4.3c0,1.3-1,2.4-2.4,2.4ZM11.8,23v-4.6s-4.6,0-4.6,0v4.6s4.6,0,4.6,0Z"/>
  <path class="st0" d="M11.7,61.9h-4.4c-1.4,0-2.4-1.1-2.4-2.5v-4.3c0-1.5,1.1-2.4,2.5-2.4h4.1c1.4,0,2.5,1,2.5,2.4v4.3c0,1.3-1,2.5-2.4,2.5ZM11.8,59.6v-4.5s-4.6,0-4.6,0v4.6s4.6,0,4.6,0Z"/>
  <path class="st0" d="M50.3,47.7c-5.5,6.8-15.6,7.2-21.6,1s-5.3-14.4.3-19.8,14.6-5.5,20.2,0,5.6,13.1,1.1,18.7ZM48,46.8c4.1-4.6,4-11.4-.1-15.8-5.1-5.5-13.9-5.1-18.5.8s-3.3,10.4.3,14.6c4.7,5.7,13.4,5.9,18.3.4Z"/>
  <path class="st0" d="M46.1,41.3l-9.1,5.5c-.9.5-2,.5-2.9,0s-1.2-1.3-1.2-2.4v-10.6c0-1,.5-1.9,1.2-2.4s2-.6,2.9,0l9,5.4c.8.5,1.3,1.3,1.3,2.3s-.4,1.8-1.3,2.4ZM45.3,39l-9.4-5.8h-.5c0,0-.1.4-.1.5v10.6c0,.1.1.4.2.5s.4,0,.5,0l9.4-5.7Z"/>
</svg>