<?xml version="1.0" encoding="UTF-8" standalone="no"?>
<!-- Created with Inkscape (http://www.inkscape.org/) -->

<svg
   version="1.1"
   id="svg2"
   width="100.51701"
   height="320.4599"
   viewBox="0 0 100.51701 320.4599"
   sodipodi:docname="ASA-logo-6.png"
   xmlns:inkscape="http://www.inkscape.org/namespaces/inkscape"
   xmlns:sodipodi="http://sodipodi.sourceforge.net/DTD/sodipodi-0.dtd"
   xmlns="http://www.w3.org/2000/svg"
   xmlns:svg="http://www.w3.org/2000/svg">
  <defs
     id="defs6" />
  <sodipodi:namedview
     id="namedview4"
     pagecolor="#ffffff"
     bordercolor="#000000"
     borderopacity="0.25"
     inkscape:showpageshadow="2"
     inkscape:pageopacity="0.0"
     inkscape:pagecheckerboard="0"
     inkscape:deskcolor="#d1d1d1"
     showgrid="false" />
  <g
     inkscape:groupmode="layer"
     inkscape:label="Image"
     id="g8"
     transform="translate(-241.91524,-29.206079)">
    <g
       id="g174"
       transform="translate(161.93437,9.3686421)">
      <path
         style="fill:#c3ff00;fill-opacity:1;stroke-width:0.64"
         d="m 132.59374,339.33026 c -1.86275,-0.50139 -4.81167,-1.52458 -6.55315,-2.27374 -2.63333,-1.13283 -3.11366,-1.59175 -2.85344,-2.72626 0.673,-2.93407 26.55341,-152.05638 26.55341,-153.00012 0,-0.87018 -1.36494,-1.00401 -10.24,-1.00401 h -10.24 l -0.004,2.4 c -0.002,1.32 -0.57659,23.424 -1.27608,49.12 -0.91707,33.68913 -1.54702,48.4158 -2.25857,52.8 -2.14508,13.21688 -8.08204,46.3943 -8.35003,46.66229 -0.55787,0.55787 -4.26702,-3.53663 -7.29577,-8.05373 -2.96624,-4.42389 -5.2458,-10.03391 -6.13922,-15.10875 -0.23434,-1.33111 -0.89632,-30.54347 -1.47106,-64.91637 l -1.04497,-62.49618 -4.270077,-1.04066 c -2.34854,-0.57235 -5.65534,-1.8971 -7.34843,-2.94385 -5.7649,-3.56416 -9.82149,-10.81731 -9.82149,-17.56071 0,-2.36015 27.580787,-133.115204 29.197827,-138.421151 0.30837,-1.011854 0.81372,-1.103579 3.97771,-0.721991 4.21206,0.507988 12.78765,3.070981 14.26066,4.262093 0.91219,0.737625 -0.30968,8.355241 -12.29622,76.659009 -7.31998,41.712 -13.32501,76.632 -13.34452,77.6 l -0.0355,1.76 h 10.24 10.24 l 0.0165,-4.96 c 0.009,-2.728 0.57364,-24.976 1.2546,-49.44 0.90113,-32.373797 1.51185,-46.134797 2.24386,-50.559997 2.13313,-12.89528 8.08748,-46.375765 8.28238,-46.570667 0.63303,-0.633032 7.8176,8.520236 9.67479,12.325846 4.15799,8.520271 4.02088,6.659111 5.08808,69.071088 0.5362,31.35755 1.0435,59.86909 1.12735,63.35897 l 0.15245,6.34524 4.05396,0.82557 c 9.70177,1.97573 16.30069,9.27078 17.1391,18.94714 0.30859,3.56162 -1.29204,11.63193 -14.1248,71.21681 -7.96006,36.96 -14.62622,67.704 -14.81368,68.32 -0.42762,1.40516 -4.75681,1.46045 -9.7214,0.12413 z m 47.90414,-3.64413 c -122.785997,-204.21907 -61.393,-102.10953 0,0 z"
         id="path176"
         sodipodi:nodetypes="sssssccsssssscscssssssccccsssssscssssscc"
         inkscape:export-filename="icon.svg"
         inkscape:export-xdpi="47.753109"
         inkscape:export-ydpi="47.753109" />
    </g>
  </g>
</svg>
